# xmcd
#
# Track frame offsets: 
#        150
#        11866
#        23493
#        33059
#        44237
#        55068
#        63914
#        73944
#        84787
#        95758
#        107377
#        119685
#        129008
#        142143
#        153141
#        164648
#        175397
#        187248
#        198239
#        208685
#
# Disc length: 2940 seconds
#
# Revision: 0
# Processed by: cddbd v1.5.2PL0 Copyright (c) Steve Scherf et al.
# Submitted via: ExactAudioCopy v0.99pb5
#
DISCID=1b0b7a14
DTITLE=Gene Vincent - 80 Original Hits And Rarities CD1
DYEAR=1900
DGENRE=Rock and Roll
TTITLE0=Be Bop A Lula
TTITLE1=Woman Love
TTITLE2=Race With The Devil
TTITLE3=Gonna Back Up Baby
TTITLE4=Blue Jean Bop
TTITLE5=Who Slapped John
TTITLE6=Crazy Legs
TTITLE7=Important Words
TTITLE8=Jezebel
TTITLE9=Ain't She Sweet
TTITLE10=Waltz Of The Wind
TTITLE11=Jump Back, Honey, Jump Back
TTITLE12=Jumps. Giggles And Shouts
TTITLE13=I Pupped
TTITLE14=Wedding Bells
TTITLE15=Up A Lazy River
TTITLE16=Peg 0' My Heart
TTITLE17=Bop Street
TTITLE18=B-I-Bickey-Bi-Bo-Bo-Go
TTITLE19=Five Days. Five Days
EXTD=
EXTT0=
EXTT1=
EXTT2=
EXTT3=
EXTT4=
EXTT5=
EXTT6=
EXTT7=
EXTT8=
EXTT9=
EXTT10=
EXTT11=
EXTT12=
EXTT13=
EXTT14=
EXTT15=
EXTT16=
EXTT17=
EXTT18=
EXTT19=
PLAYORDER=
